<svg xmlns="http://www.w3.org/2000/svg" xml:space="preserve" viewBox="0 60 38.5 60.753" y="0" x="0" id="Layer_1" version="1.1">
    <style id="style5897" type="text/css">
        .st1{fill:#009997}.st2{fill:#c5a9fb}.st3{fill:#4f2794}.st4{fill:#a875fc}
    </style>
    <g transform="translate(-14.5 -9.847)" id="g5899">
        <g id="g5901">
            <path d="M33.6 79.2c.3-.6.5-2.5.5-2.5.2-1.3 0-2.1-.3-3.3-.3-1.2-1.3-3-1.5-3.4-.2-.4-.9.1-1.2.2-.3.1-.7.6-.2 1 .5.4 1.7 2 2 2.6.4.9.6 1.8.5 2.8-.1.8-.2 1.8-.2 2.2" class="st1" id="XMLID_49_" fill="#009997"/>
        </g>
        <g id="g5904">
            <path id="polygon5906" class="st2" fill="#c5a9fb" d="M14.5 96.9l6-3.4 5.9 3.4-6.2 3.6z"/>
            <path id="polygon5908" class="st3" fill="#4f2794" d="M20.2 100.5l6.2-3.6v6.9l-5.9 3.4z"/>
            <path id="polygon5910" class="st4" fill="#a875fc" d="M20.2 100.5l-5.7-3.6v6.9l6 3.4z"/>
        </g>
        <g id="g5912">
            <path id="polygon5914" class="st2" fill="#c5a9fb" d="M27.8 96.9l6-3.4 5.9 3.4-6.2 3.6z"/>
            <path id="polygon5916" class="st3" fill="#4f2794" d="M33.5 100.5l6.2-3.6v6.9l-5.9 3.4z"/>
            <path id="polygon5918" class="st4" fill="#a875fc" d="M33.5 100.5l-5.7-3.6v6.9l6 3.4z"/>
        </g>
        <g id="g5920">
            <path id="polygon5922" class="st2" fill="#c5a9fb" d="M27.8 120.4l6-3.5 5.9 3.5-6.2 3.6z"/>
            <path id="polygon5924" class="st3" fill="#4f2794" d="M33.5 124l6.2-3.6v6.8l-5.9 3.4z"/>
            <path id="polygon5926" class="st4" fill="#a875fc" d="M33.5 124l-5.7-3.6v6.8l6 3.4z"/>
        </g>
        <g id="g5928">
            <path id="polygon5930" class="st2" fill="#c5a9fb" d="M20.9 108.6l5.9-3.4 6 3.4-6.3 3.6z"/>
            <path id="polygon5932" class="st3" fill="#4f2794" d="M26.5 112.2l6.3-3.6v6.9l-6 3.4z"/>
            <path id="polygon5934" class="st4" fill="#a875fc" d="M26.5 112.2l-5.6-3.6v6.9l5.9 3.4z"/>
        </g>
        <path id="polygon5936" class="st2" fill="#c5a9fb" d="M34.8 108.6l5.9-3.4 6 3.4-6.3 3.6z"/>
        <path id="polygon5938" class="st3" fill="#4f2794" d="M40.4 112.2l6.3-3.6v6.9l-6 3.4z"/>
        <path id="polygon5940" class="st4" fill="#a875fc" d="M40.4 112.2l-5.6-3.6v6.9l5.9 3.4z"/>
        <g id="g5942">
            <path id="polygon5944" class="st2" fill="#c5a9fb" d="M20.9 85l5.9-3.4 6 3.4-6.3 3.6z"/>
            <path id="polygon5946" class="st3" fill="#4f2794" d="M26.5 88.6l6.3-3.6v6.9l-6 3.4z"/>
            <path id="polygon5948" class="st4" fill="#a875fc" d="M26.5 88.6L20.9 85v6.9l5.9 3.4z"/>
        </g>
        <g id="g5950">
            <path id="polygon5952" class="st2" fill="#c5a9fb" d="M34.8 85l5.9-3.4 6 3.4-6.3 3.6z"/>
            <path id="polygon5954" class="st3" fill="#4f2794" d="M40.4 88.6l6.3-3.6v6.9l-6 3.4z"/>
            <path id="polygon5956" class="st4" fill="#a875fc" d="M40.4 88.6L34.8 85v6.9l5.9 3.4z"/>
        </g>
        <g id="g5958">
            <path id="polygon5960" class="st2" fill="#c5a9fb" d="M41.2 96.9l5.9-3.4 5.9 3.4-6.2 3.6z"/>
            <path id="polygon5962" class="st3" fill="#4f2794" d="M46.8 100.5l6.2-3.6v6.9l-5.9 3.4z"/>
            <path id="polygon5964" class="st4" fill="#a875fc" d="M46.8 100.5l-5.6-3.6v6.9l5.9 3.4z"/>
        </g>
        <path d="M33.7 82c.4-1.5.3-3.6-1.6-5.7-1.2-1.5-2.5-2.1-4.3-2.2-1.8-.1-3.1-.7-3.8-1.2-.2-.2-.3-.1-.3.2.1.4.3 1.4.4 2.3.1.9.3 2.2.9 3 .7 1.1 1.9 2.2 3.8 2.4 1.3.2 1.9-.4 3.2-.3 1.3.2 1.4 1.6 1.4 1.7.1.1.2-.1.3-.2z" class="st1" id="XMLID_48_" fill="#009997"/>
        <path d="M33.5 81.9c-.5-2.2-.1-5 2.7-7.7 1.8-1.9 3.7-2.6 6.1-2.7 2.4 0 4.4-.7 5.4-1.4.3-.3.5-.1.4.3-.2.5-.5 1.9-.8 3.1-.2 1.2-.7 2.9-1.6 4-1 1.4-2.8 2.9-5.5 3-1.8.2-2.6-.7-4.4-.7-1.9.2-2 2.1-2.1 2.3 0 .3-.2 0-.2-.2z" class="st1" id="XMLID_47_" fill="#009997"/>
    </g>
</svg>
