<?xml version="1.0" encoding="utf-8"?>
<!-- Generator: Adobe Illustrator 16.0.0, SVG Export Plug-In . SVG Version: 6.00 Build 0)  -->
<!DOCTYPE svg PUBLIC "-//W3C//DTD SVG 1.1//EN" "http://www.w3.org/Graphics/SVG/1.1/DTD/svg11.dtd">
<svg version="1.1" id="Layer_1" xmlns="http://www.w3.org/2000/svg" xmlns:xlink="http://www.w3.org/1999/xlink" x="0px" y="0px"
	 width="131.334px" height="143.667px" viewBox="0 0 131.334 143.667" enable-background="new 0 0 131.334 143.667"
	 xml:space="preserve">
<g>
	<path fill-rule="evenodd" clip-rule="evenodd" fill="#009343" d="M7.271,36.753c0.312-5.062,1.234-12.188,2.562-19.191
		c1.031-5.438,1.538-6.492,2.134-9.429c18.648,9.638,37.151,17.146,55.08-1.42c17.39,18.271,35.863,11.604,54.335,1.774
		c10.873,18.228,4.531,74.776-10.701,94.459c-2.449-3.414-3.064-5.424-5.467-8.717c-1.688-2.312-3.131-3.605-3.131-3.605
		s0.797-0.969,1.529-2.84c3.746-9.573,3.734-19.55,1.023-29.493C99.603,39.839,85.152,29.73,64.839,30.475
		c-17.409,0.64-31.672,12.678-34.623,30.389c-1.151,6.912-1.341,14.434,0.083,21.248c6.011,28.773,31.365,34.51,51.035,26.83
		c-6.812-3.5-15.344-15.375-15.344-15.375s-2.141-0.551-5.016-1.926c-3.03-1.449-6.07-4.9-7.769-8.096
		c-4.407-8.29-3.999-17.094-0.264-25.552c2.744-6.214,7.865-9.13,14.775-9.106c6.919,0.023,12.135,2.952,14.605,9.268
		c1.823,4.665,3.241,11.892,2.491,17.35c-0.542,0.167-6.774-4.755-6.774-4.755l-3.275,2.943c0,0,10.305,10.771,15.543,16.246
		c-0.592,0.545-1.184,1.092-1.774,1.637c-5.371-5.211-16.359-15.871-16.359-15.871l-4.41,3.828c0,0,10.684,11.457,15.991,17.043
		c-0.586,0.588-1.172,1.178-1.758,1.766c-5.432-5.254-16.766-16.295-16.766-16.295l-3.333,2.793c0,0,2.001,2.643,2.856,3.82
		c8.682,11.951,19.101,21.748,33.351,26.773c0.616,0.217,1.191,0.553,2.256,1.055c-9.171,9.375-19.782,16.016-31.683,20.59
		c-1.55,0.594-3.926-0.178-5.649-0.934C32.244,122.646,14.6,100.346,9.184,67.5C8.35,62.443,7.571,56.746,7.271,50.753
		C6.958,44.503,6.958,41.816,7.271,36.753z"/>
</g>
</svg>
